<mxfile host="app.diagrams.net" agent="Mozilla/5.0 (Windows NT 10.0; Win64; x64) AppleWebKit/537.36 (KHTML, like Gecko) Chrome/136.0.0.0 Safari/537.36" version="27.0.9">
  <diagram name="Trang-1" id="HRxQp5wkGJBUqqxbWbiV">
    <mxGraphModel dx="1603" dy="811" grid="1" gridSize="10" guides="1" tooltips="1" connect="1" arrows="1" fold="1" page="1" pageScale="1" pageWidth="827" pageHeight="1169" math="0" shadow="0">
      <root>
        <mxCell id="0" />
        <mxCell id="1" parent="0" />
        <mxCell id="M9dzKN7Fau-PWi0eiLag-44" value="Ứng viên" style="swimlane;whiteSpace=wrap;html=1;" vertex="1" parent="1">
          <mxGeometry x="320" y="400" width="560" height="760" as="geometry" />
        </mxCell>
        <mxCell id="M9dzKN7Fau-PWi0eiLag-54" value="Nộp đơn ứng tuyển" style="ellipse;whiteSpace=wrap;html=1;" vertex="1" parent="M9dzKN7Fau-PWi0eiLag-44">
          <mxGeometry x="240" y="350" width="170" height="45" as="geometry" />
        </mxCell>
        <mxCell id="M9dzKN7Fau-PWi0eiLag-50" value="Xem chi tiết công việc" style="ellipse;whiteSpace=wrap;html=1;" vertex="1" parent="M9dzKN7Fau-PWi0eiLag-44">
          <mxGeometry x="150" y="260" width="170" height="45" as="geometry" />
        </mxCell>
        <mxCell id="M9dzKN7Fau-PWi0eiLag-64" value="&lt;&lt;include&gt;&gt;" style="endArrow=none;dashed=1;" edge="1" parent="M9dzKN7Fau-PWi0eiLag-44" source="M9dzKN7Fau-PWi0eiLag-54" target="M9dzKN7Fau-PWi0eiLag-50">
          <mxGeometry relative="1" as="geometry" />
        </mxCell>
        <mxCell id="M9dzKN7Fau-PWi0eiLag-47" value="Đăng nhập" style="ellipse;whiteSpace=wrap;html=1;" vertex="1" parent="M9dzKN7Fau-PWi0eiLag-44">
          <mxGeometry x="60" y="490" width="170" height="45" as="geometry" />
        </mxCell>
        <mxCell id="M9dzKN7Fau-PWi0eiLag-65" value="&lt;&lt;include&gt;&gt;" style="endArrow=none;dashed=1;" edge="1" parent="M9dzKN7Fau-PWi0eiLag-44" source="M9dzKN7Fau-PWi0eiLag-51" target="M9dzKN7Fau-PWi0eiLag-47">
          <mxGeometry relative="1" as="geometry" />
        </mxCell>
        <mxCell id="M9dzKN7Fau-PWi0eiLag-66" value="&lt;&lt;include&gt;&gt;" style="endArrow=none;dashed=1;" edge="1" parent="M9dzKN7Fau-PWi0eiLag-44" source="M9dzKN7Fau-PWi0eiLag-52" target="M9dzKN7Fau-PWi0eiLag-47">
          <mxGeometry relative="1" as="geometry" />
        </mxCell>
        <mxCell id="M9dzKN7Fau-PWi0eiLag-68" value="&lt;&lt;include&gt;&gt;" style="endArrow=none;dashed=1;" edge="1" parent="M9dzKN7Fau-PWi0eiLag-44" source="M9dzKN7Fau-PWi0eiLag-54" target="M9dzKN7Fau-PWi0eiLag-47">
          <mxGeometry relative="1" as="geometry" />
        </mxCell>
        <mxCell id="M9dzKN7Fau-PWi0eiLag-69" value="&lt;&lt;include&gt;&gt;" style="endArrow=none;dashed=1;" edge="1" parent="M9dzKN7Fau-PWi0eiLag-44" source="M9dzKN7Fau-PWi0eiLag-55" target="M9dzKN7Fau-PWi0eiLag-47">
          <mxGeometry relative="1" as="geometry" />
        </mxCell>
        <mxCell id="M9dzKN7Fau-PWi0eiLag-70" value="&lt;&lt;include&gt;&gt;" style="endArrow=none;dashed=1;" edge="1" parent="M9dzKN7Fau-PWi0eiLag-44" source="M9dzKN7Fau-PWi0eiLag-56" target="M9dzKN7Fau-PWi0eiLag-47">
          <mxGeometry relative="1" as="geometry" />
        </mxCell>
        <mxCell id="M9dzKN7Fau-PWi0eiLag-46" value="Đăng ký tài khoản" style="ellipse;whiteSpace=wrap;html=1;" vertex="1" parent="M9dzKN7Fau-PWi0eiLag-44">
          <mxGeometry x="60" y="80" width="170" height="45" as="geometry" />
        </mxCell>
        <mxCell id="M9dzKN7Fau-PWi0eiLag-48" value="Xem danh sách việc làm" style="ellipse;whiteSpace=wrap;html=1;" vertex="1" parent="M9dzKN7Fau-PWi0eiLag-44">
          <mxGeometry x="60" y="160" width="170" height="45" as="geometry" />
        </mxCell>
        <mxCell id="M9dzKN7Fau-PWi0eiLag-60" value="&lt;&lt;extend&gt;&gt;" style="endArrow=none;dashed=1;" edge="1" parent="M9dzKN7Fau-PWi0eiLag-44" source="M9dzKN7Fau-PWi0eiLag-49" target="M9dzKN7Fau-PWi0eiLag-48">
          <mxGeometry relative="1" as="geometry" />
        </mxCell>
        <mxCell id="M9dzKN7Fau-PWi0eiLag-61" value="&lt;&lt;extend&gt;&gt;" style="endArrow=none;dashed=1;" edge="1" parent="M9dzKN7Fau-PWi0eiLag-44" source="M9dzKN7Fau-PWi0eiLag-50" target="M9dzKN7Fau-PWi0eiLag-48">
          <mxGeometry relative="1" as="geometry" />
        </mxCell>
        <mxCell id="M9dzKN7Fau-PWi0eiLag-72" value="&lt;&lt;extend&gt;&gt;" style="endArrow=none;dashed=1;entryX=1;entryY=0.5;entryDx=0;entryDy=0;exitX=0;exitY=0.5;exitDx=0;exitDy=0;" edge="1" parent="M9dzKN7Fau-PWi0eiLag-44" source="M9dzKN7Fau-PWi0eiLag-71" target="M9dzKN7Fau-PWi0eiLag-48">
          <mxGeometry relative="1" as="geometry">
            <mxPoint x="465" y="170" as="sourcePoint" />
            <mxPoint x="320" y="201" as="targetPoint" />
          </mxGeometry>
        </mxCell>
        <mxCell id="M9dzKN7Fau-PWi0eiLag-49" value="Tìm kiếm / lọc việc làm" style="ellipse;whiteSpace=wrap;html=1;" vertex="1" parent="M9dzKN7Fau-PWi0eiLag-44">
          <mxGeometry x="337" y="100" width="170" height="45" as="geometry" />
        </mxCell>
        <mxCell id="M9dzKN7Fau-PWi0eiLag-71" value="Thêm việc làm yêu thích" style="ellipse;whiteSpace=wrap;html=1;" vertex="1" parent="M9dzKN7Fau-PWi0eiLag-44">
          <mxGeometry x="337" y="190" width="170" height="45" as="geometry" />
        </mxCell>
        <mxCell id="M9dzKN7Fau-PWi0eiLag-55" value="Xem trạng thái ứng tuyển" style="ellipse;whiteSpace=wrap;html=1;" vertex="1" parent="M9dzKN7Fau-PWi0eiLag-44">
          <mxGeometry x="337" y="470" width="170" height="45" as="geometry" />
        </mxCell>
        <mxCell id="M9dzKN7Fau-PWi0eiLag-52" value="Tải lên CV" style="ellipse;whiteSpace=wrap;html=1;" vertex="1" parent="M9dzKN7Fau-PWi0eiLag-44">
          <mxGeometry x="337" y="550" width="170" height="45" as="geometry" />
        </mxCell>
        <mxCell id="M9dzKN7Fau-PWi0eiLag-56" value="Xem thông báo" style="ellipse;whiteSpace=wrap;html=1;" vertex="1" parent="M9dzKN7Fau-PWi0eiLag-44">
          <mxGeometry x="337" y="630" width="170" height="45" as="geometry" />
        </mxCell>
        <mxCell id="M9dzKN7Fau-PWi0eiLag-51" value="Cập nhật hồ sơ" style="ellipse;whiteSpace=wrap;html=1;" vertex="1" parent="M9dzKN7Fau-PWi0eiLag-44">
          <mxGeometry x="140" y="660" width="170" height="45" as="geometry" />
        </mxCell>
        <mxCell id="M9dzKN7Fau-PWi0eiLag-45" value="" style="shape=umlActor;whiteSpace=wrap;html=1;" vertex="1" parent="1">
          <mxGeometry x="210" y="620" width="30" height="60" as="geometry" />
        </mxCell>
        <mxCell id="M9dzKN7Fau-PWi0eiLag-57" style="endArrow=none;" edge="1" parent="1" source="M9dzKN7Fau-PWi0eiLag-45" target="M9dzKN7Fau-PWi0eiLag-46">
          <mxGeometry relative="1" as="geometry" />
        </mxCell>
        <mxCell id="M9dzKN7Fau-PWi0eiLag-58" style="endArrow=none;" edge="1" parent="1" source="M9dzKN7Fau-PWi0eiLag-45" target="M9dzKN7Fau-PWi0eiLag-47">
          <mxGeometry relative="1" as="geometry" />
        </mxCell>
        <mxCell id="M9dzKN7Fau-PWi0eiLag-59" style="endArrow=none;" edge="1" parent="1" source="M9dzKN7Fau-PWi0eiLag-45" target="M9dzKN7Fau-PWi0eiLag-48">
          <mxGeometry relative="1" as="geometry" />
        </mxCell>
        <mxCell id="M9dzKN7Fau-PWi0eiLag-76" value="Ứng viên" style="text;html=1;align=center;verticalAlign=middle;whiteSpace=wrap;rounded=0;" vertex="1" parent="1">
          <mxGeometry x="195" y="680" width="60" height="30" as="geometry" />
        </mxCell>
      </root>
    </mxGraphModel>
  </diagram>
</mxfile>
